<?xml version="1.0" encoding="UTF-8" standalone="no"?>
<svg
   width="24"
   height="24"
   viewBox="0 0 24 24"
   version="1.1"
   id="svg6"
   inkscape:version="1.4.3 (0d15f75, 2025-12-25)"
   sodipodi:docname="ic_pref_blur_translucent.svg"
   xmlns:inkscape="http://www.inkscape.org/namespaces/inkscape"
   xmlns:sodipodi="http://sodipodi.sourceforge.net/DTD/sodipodi-0.dtd"
   xmlns="http://www.w3.org/2000/svg"
   xmlns:svg="http://www.w3.org/2000/svg">
  <sodipodi:namedview
     id="namedview1"
     pagecolor="#ffffff"
     bordercolor="#999999"
     borderopacity="1"
     inkscape:showpageshadow="2"
     inkscape:pageopacity="0"
     inkscape:pagecheckerboard="0"
     inkscape:deskcolor="#d1d1d1"
     inkscape:zoom="25.270833"
     inkscape:cx="20.260511"
     inkscape:cy="12.049464"
     inkscape:window-width="2560"
     inkscape:window-height="1494"
     inkscape:window-x="2869"
     inkscape:window-y="-11"
     inkscape:window-maximized="1"
     inkscape:current-layer="svg6" />
  <defs
     id="defs1">
    <clipPath
       id="frame-clip">
      <rect
         x="2.8"
         y="4.8"
         width="18.4"
         height="14.4"
         rx="2.2"
         ry="2.2"
         id="rect1" />
    </clipPath>
  </defs>
  <path
     d="M5,4L19,4A3,3 0,0 1,22 7L22,17A3,3 0,0 1,19 20L5,20A3,3 0,0 1,2 17L2,7A3,3 0,0 1,5 4z"
     fill="#000000"
     fill-opacity="0.04"
     stroke="#000000"
     stroke-width="1.6"
     stroke-opacity="1"
     id="path4"
     style="opacity:1" />
  <rect
     x="2.8"
     y="4.8"
     width="18.4"
     height="14.4"
     rx="2.2"
     ry="2.2"
     fill="#000000"
     fill-opacity="0.1"
     id="rect3" />
  <g
     clip-path="url(#frame-clip)"
     id="g1">
    <path
       style="fill-opacity:0.27;fill:#000000;"
       d="M 7.6,4.8 2.8,9.6 2.8,12.2 10.2,4.8 Z M 13.6,4.8 2.8,15.6 2.8,18.2 16.2,4.8 Z M 21.2,4.8 6.8,19.2 9.4,19.2 21.2,7.4 Z M 21.2,10.8 12.8,19.2 15.4,19.2 21.2,13.4 Z M 21.2,16.8 18.8,19.2 21.2,19.2 Z"
       id="path3" />
    <path
       style="fill-opacity:0.23;fill:#000000;"
       d="M 8.6,4.8 2.8,10.6 2.8,11.2 9.2,4.8 Z M 14.6,4.8 2.8,16.6 2.8,17.2 15.2,4.8 Z M 21.2,5.7 7.7,19.2 8.3,19.2 21.2,6.3 Z M 21.2,11.7 13.7,19.2 14.3,19.2 21.2,12.3 Z M 21.2,17.7 19.7,19.2 20.3,19.2 21.2,18.3 Z"
       id="path2" />
  </g>
</svg>
