<?xml version="1.0" encoding="UTF-8" standalone="no"?>
<svg
   width="24"
   height="24"
   viewBox="0 0 24 24"
   fill="none"
   stroke="currentColor"
   stroke-width="1.7"
   stroke-linecap="round"
   stroke-linejoin="round"
   version="1.1"
   id="svg6"
   sodipodi:docname="ic_settings_misc.svg"
   inkscape:version="1.4.3 (0d15f75, 2025-12-25)"
   xmlns:inkscape="http://www.inkscape.org/namespaces/inkscape"
   xmlns:sodipodi="http://sodipodi.sourceforge.net/DTD/sodipodi-0.dtd"
   xmlns="http://www.w3.org/2000/svg"
   xmlns:svg="http://www.w3.org/2000/svg">
  <defs
     id="defs6" />
  <sodipodi:namedview
     id="namedview6"
     pagecolor="#ffffff"
     bordercolor="#999999"
     borderopacity="1"
     inkscape:showpageshadow="2"
     inkscape:pageopacity="0"
     inkscape:pagecheckerboard="0"
     inkscape:deskcolor="#d1d1d1"
     inkscape:zoom="16"
     inkscape:cx="-18.0625"
     inkscape:cy="9.09375"
     inkscape:window-width="2560"
     inkscape:window-height="1494"
     inkscape:window-x="2869"
     inkscape:window-y="-11"
     inkscape:window-maximized="1"
     inkscape:current-layer="svg6" />
  <!-- Back-left box (behind front, cut on right, non-rounded cut) -->
  <path
     id="rect6-1-9-5"
     style="opacity:0.6;baseline-shift:baseline;display:inline;overflow:visible;vector-effect:none;fill:#000000;stroke:none;stroke-width:1.70002;stroke-linecap:butt;stroke-linejoin:miter;enable-background:accumulate;stop-color:#000000"
     d="M 6.0137995,-1.3322497 A 0.80009795,0.80008001 0 0 0 5.2130003,-0.53146849 V 4.439235 H 6.8145987 V 0.26931271 H 9.1271505 V 1.4060315 c 0,0.3653506 0.3143446,0.6777344 0.6797028,0.6777344 H 10.44554 v 0.023437 0.4785156 a 0.80009795,0.80008001 0 0 1 0.218755,-0.03125 h 0.98049 V 2.1052503 2.0837663 h 0.619155 c 0.365378,0 0.677749,-0.3123655 0.677749,-0.6777344 V 0.26931311 h 2.474666 v 0.203125 l 0.002,1.28320319 V 2.5544694 H 17.018 V 1.7536881 0.47243811 -0.53146809 A 0.80009795,0.80008001 0 0 0 16.217201,-1.3322497 Z m 4.3145495,1.60156241 h 1.414095 v 0.6132813 h -1.414095 z"
     inkscape:label="box_3"
     transform="translate(0.73600002,6.28125)" />
  <path
     id="path2-9-8-2-2-17"
     style="opacity:0.8;baseline-shift:baseline;display:inline;overflow:visible;vector-effect:none;fill:#000000;stroke:none;stroke-linecap:square;stroke-linejoin:miter;enable-background:accumulate;stop-color:#000000"
     d="M 11.400782,8.8360003 A 0.80008001,0.80008001 0 0 0 10.6,9.6367823 v 1.0839837 h 1.59961 V 10.43561 h 2.050781 v 1.091797 c 0,0.361103 0.308788,0.671875 0.669922,0.671875 h 0.654297 v 0.06055 4.232422 h -1.703125 v 1.599609 h 7.046875 a 0.80008001,0.80008001 0 0 0 0.798828,-0.798828 l 0.002,-7.6562497 A 0.80008001,0.80008001 0 0 0 20.91836,8.8360003 Z M 15.44961,10.43561 h 1.458984 v 0.5625 H 15.44961 Z m 2.660156,0 h 2.009766 l -0.002,6.056641 h -3.341797 l -0.002,-4.232422 v -0.06055 h 0.664156 c 0.361206,0 0.671875,-0.310669 0.671875,-0.671875 z"
     inkscape:label="box_2" />
  <path
     id="path2-9-8-2-2-1"
     style="baseline-shift:baseline;display:inline;overflow:visible;vector-effect:none;fill:#000000;stroke:none;stroke-linecap:square;stroke-linejoin:miter;enable-background:accumulate;stop-color:#000000;stop-opacity:1;opacity:1"
     d="M 3.2714844 10.720703 C 2.7313222 10.720703 2.2714844 11.180541 2.2714844 11.720703 L 2.2714844 19.320312 C 2.2714844 19.860475 2.7313222 20.320312 3.2714844 20.320312 L 12.871094 20.320312 C 13.411256 20.320312 13.871094 19.860475 13.871094 19.320312 L 13.871094 11.720703 C 13.871094 11.180541 13.411256 10.720703 12.871094 10.720703 L 3.2714844 10.720703 z M 3.8710938 12.320312 L 6.0683594 12.320312 L 6.0683594 13.521484 C 6.0683594 13.886829 6.3807489 14.201172 6.7460938 14.201172 L 7.4667969 14.201172 L 7.46875 18.480469 L 7.46875 18.720703 L 3.8710938 18.720703 L 3.8710938 12.320312 z M 7.2675781 12.320312 L 8.8691406 12.320312 L 8.8691406 13 L 7.2675781 13 L 7.2675781 12.320312 z M 10.068359 12.320312 L 12.271484 12.320312 L 12.271484 18.720703 L 8.6679688 18.720703 L 8.6679688 18.480469 L 8.6679688 14.201172 L 9.390625 14.201172 C 9.7559699 14.201172 10.068359 13.886829 10.068359 13.521484 L 10.068359 12.320312 z "
     inkscape:label="box_1" />
  <!-- left vertical -->
  <!-- Duct tape for back-left -->
  <!-- Back-top box (behind front, cut on bottom, non-rounded cut) -->
  <!-- right vertical -->
  <!-- Duct tape for back-top -->
  <!-- Front-left box (fully enclosed) -->
  <!-- Duct tape for front-left -->
</svg>
