<?xml version="1.0" encoding="UTF-8" standalone="no"?>
<svg
   width="24"
   height="24"
   viewBox="0 0 24 24"
   fill="none"
   stroke="currentColor"
   stroke-width="2"
   stroke-linecap="round"
   stroke-linejoin="round"
   class="lucide lucide-paintbrush-vertical-icon lucide-paintbrush-vertical"
   version="1.1"
   id="svg4"
   sodipodi:docname="paintbrush-vertical.svg"
   inkscape:version="1.4.3 (0d15f75, 2025-12-25)"
   xmlns:inkscape="http://www.inkscape.org/namespaces/inkscape"
   xmlns:sodipodi="http://sodipodi.sourceforge.net/DTD/sodipodi-0.dtd"
   xmlns="http://www.w3.org/2000/svg"
   xmlns:svg="http://www.w3.org/2000/svg">
  <defs
     id="defs4" />
  <sodipodi:namedview
     id="namedview4"
     pagecolor="#ffffff"
     bordercolor="#666666"
     borderopacity="1.0"
     inkscape:showpageshadow="2"
     inkscape:pageopacity="0.0"
     inkscape:pagecheckerboard="0"
     inkscape:deskcolor="#d1d1d1"
     inkscape:zoom="4.0260417"
     inkscape:cx="-24.093144"
     inkscape:cy="-17.01423"
     inkscape:window-width="1920"
     inkscape:window-height="991"
     inkscape:window-x="2391"
     inkscape:window-y="-9"
     inkscape:window-maximized="1"
     inkscape:current-layer="svg4" />
  <path
     d="M10 2v2"
     id="path1"
     style="stroke-width:1.6;stroke-dasharray:none;opacity:1" />
  <path
     d="m 13.586086,2.0232859 v 4"
     id="path2"
     style="stroke-width:1.6;stroke-dasharray:none;opacity:1" />
  <path
     d="M 14.752241,2.5956923 V 4.4184607"
     id="path2-9"
     style="stroke-width:1.6;stroke-dasharray:none;opacity:1"
     sodipodi:nodetypes="cc" />
  <path
     d="M17 2a1 1 0 0 1 1 1v9H6V3a1 1 0 0 1 1-1z"
     id="path3"
     style="stroke-width:1.6;stroke-dasharray:none" />
  <path
     d="M6 12a1 1 0 0 0-1 1v1a2 2 0 0 0 2 2h2a1 1 0 0 1 1 1v2.9a2 2 0 1 0 4 0V17a1 1 0 0 1 1-1h2a2 2 0 0 0 2-2v-1a1 1 0 0 0-1-1"
     id="path4"
     style="stroke-width:1.6;stroke-dasharray:none" />
</svg>
