<?xml version="1.0" encoding="UTF-8" standalone="no"?>
<svg
   width="24px"
   height="24px"
   viewBox="0 0 24 24"
   stroke-width="1.5"
   fill="none"
   color="#000000"
   version="1.1"
   id="svg14"
   sodipodi:docname="box3d-center_2.svg"
   inkscape:version="1.4.3 (0d15f75, 2025-12-25)"
   xmlns:inkscape="http://www.inkscape.org/namespaces/inkscape"
   xmlns:sodipodi="http://sodipodi.sourceforge.net/DTD/sodipodi-0.dtd"
   xmlns="http://www.w3.org/2000/svg"
   xmlns:svg="http://www.w3.org/2000/svg"
   xmlns:rdf="http://www.w3.org/1999/02/22-rdf-syntax-ns#"
   xmlns:cc="http://creativecommons.org/ns#"
   xmlns:dc="http://purl.org/dc/elements/1.1/">
  <metadata
     id="metadata20">
    <rdf:RDF>
      <cc:Work
         rdf:about="">
        <dc:format>image/svg+xml</dc:format>
        <dc:type
           rdf:resource="http://purl.org/dc/dcmitype/StillImage" />
      </cc:Work>
    </rdf:RDF>
  </metadata>
  <defs
     id="defs18" />
  <sodipodi:namedview
     pagecolor="#ffffff"
     bordercolor="#666666"
     borderopacity="1"
     objecttolerance="10"
     gridtolerance="10"
     guidetolerance="10"
     inkscape:pageopacity="0"
     inkscape:pageshadow="2"
     inkscape:window-width="1920"
     inkscape:window-height="991"
     id="namedview16"
     showgrid="false"
     inkscape:zoom="32.000001"
     inkscape:cx="12.09375"
     inkscape:cy="8.6093747"
     inkscape:window-x="2391"
     inkscape:window-y="-9"
     inkscape:window-maximized="1"
     inkscape:current-layer="svg14"
     inkscape:showpageshadow="2"
     inkscape:pagecheckerboard="0"
     inkscape:deskcolor="#d1d1d1" />
  <path
     id="path1"
     style="opacity:0.821875;baseline-shift:baseline;display:inline;overflow:visible;vector-effect:none;fill:#000000;stroke-linecap:round;stroke-linejoin:round;enable-background:accumulate;stop-color:#000000;stop-opacity:1"
     d="M 12 14.199219 C 11.015375 14.199219 10.199219 15.015375 10.199219 16 C 10.199219 16.984625 11.015375 17.800781 12 17.800781 C 12.984625 17.800781 13.800781 16.984625 13.800781 16 C 13.800781 15.015375 12.984625 14.199219 12 14.199219 z " />
  <path
     d="M21 7.35304L21 16.647C21 16.8649 20.8819 17.0656 20.6914 17.1715L12.2914 21.8381C12.1102 21.9388 11.8898 21.9388 11.7086 21.8381L3.30861 17.1715C3.11814 17.0656 3 16.8649 3 16.647L2.99998 7.35304C2.99998 7.13514 3.11812 6.93437 3.3086 6.82855L11.7086 2.16188C11.8898 2.06121 12.1102 2.06121 12.2914 2.16188L20.6914 6.82855C20.8818 6.93437 21 7.13514 21 7.35304Z"
     stroke="#000000"
     stroke-width="1.5"
     stroke-linecap="round"
     stroke-linejoin="round"
     id="path4"
     style="stroke-width:1.6;stroke-miterlimit:4;stroke-dasharray:none" />
  <path
     d="M12 19.5V22"
     stroke="#000000"
     stroke-width="1.5"
     stroke-linecap="round"
     stroke-linejoin="round"
     id="path12"
     style="stroke-width:1.6;stroke-miterlimit:4;stroke-dasharray:none;opacity:0.78125" />
  <path
     id="path10"
     style="baseline-shift:baseline;display:inline;overflow:visible;vector-effect:none;fill:#000000;stroke-linecap:round;stroke-linejoin:round;enable-background:accumulate;stop-color:#000000;opacity:0.559375"
     d="M 12.000781,2.916 11.2,3.3613125 v 7.2773435 l 0.800781,0.445312 0.800781,-0.445312 V 3.3613125 Z" />
  <path
     id="path6"
     style="baseline-shift:baseline;display:inline;overflow:visible;vector-effect:none;fill:#000000;stroke-linecap:round;stroke-linejoin:round;enable-background:accumulate;stop-color:#000000;opacity:0.50625"
     d="M 10.352735,12 3.8,15.640625 v 0.888672 L 4.6476563,17 11.999219,12.916016 19.350781,17 20.198438,16.529297 V 15.640625 L 13.645703,12 12.678907,12.537109 c -0.421895,0.23423 -0.937481,0.23423 -1.359376,0 z" />
  <path
     d="m 3.528,7.2938 8.18016,4.54457 c 0.1812,0.1006 0.4016,0.1006 0.5828,0 L 20.49956,7.278"
     stroke="#000000"
     stroke-width="1.5"
     stroke-linecap="round"
     stroke-linejoin="round"
     id="path8-9"
     style="stroke-width:1.6;stroke-miterlimit:4;stroke-dasharray:none;opacity:0.8" />
</svg>
